<svg version="1" xmlns="http://www.w3.org/2000/svg" width="933.333" height="933.333" viewBox="0 0 700.000000 700.000000"><path d="M460.8 67.5c-.1.2-4.8.6-10.2.9-39.8 2.4-79.9 23-107.4 55.1-4.7 5.4-16.5 22.5-15.6 22.5.4 0 0 .8-.9 1.8-2 2.2-8 15.3-11.3 24.6-3 8.5-6 20.9-6.9 28.9-.4 3.1-1 5.9-1.4 6.1-.7.5-3.8-1-65.6-32.4-23.1-11.7-58.9-29.8-79.5-40.3-20.6-10.4-47-23.8-58.7-29.8C91.7 99 80 93.5 77.3 92.7c-12-3.6-24.4 1.8-30.4 13.3-3.3 6.2-3.4 17.6-.2 23.5 4.7 8.7-.1 6 85.8 49.5 25.3 12.8 58.3 29.5 73.3 37.1 120 61.1 123.7 62.9 130.1 62.9 13.7 0 24.8-9.5 26.7-22.9.3-2-.2-7.7-1-12.7-1.9-10.8-2.3-22.5-1.1-31.9.5-3.9 1-7.5 1-8 .1-.6.4-1.9.8-3 .3-1.1.8-3.1 1.1-4.5.9-5.3 5.4-15.7 10.5-24.5 13.7-23.6 36.7-40.9 63-47.4 27.5-6.9 54.6-2.8 78.9 11.8 7.9 4.8 10.8 7.1 19.6 15.5 6.7 6.3 14.1 9.8 20.9 9.7 5.8 0 7.2-.5 48.7-15.6 16.2-5.9 33.1-12.1 37.5-13.6 4.3-1.6 8.9-3.6 10.1-4.4 11.1-7.3 15.4-21.5 10-33.1-6.1-13-19.5-18.3-34.3-13.5-6.5 2.1-26.4 9.3-30.3 10.9-1.4.6-9.7 3.6-18.4 6.8-14.5 5.2-16.2 5.6-18.2 4.3-1.2-.8-6.7-4.4-12.1-8-23.7-16-49.1-24.8-75.9-26.5-5.4-.3-10.4-.7-11.1-.9-.6-.2-1.3-.2-1.5 0zM665.4 139.9c-4.1 1.4-16.6 9.6-52.8 34.9-2.7 1.9-11.9 8.3-20.5 14.2-26.5 18.4-26.4 18.2-26.7 45-.2 17.2-.8 31.6-1.9 40-.9 7.6-1.8 13.6-2.1 15.4-.2 1-.6 3.7-.8 6-2.6 20.7-15.5 62.5-26.7 86.4-2.7 5.7-4.9 10.6-4.9 10.8 0 .3-3.4 6.6-7.6 14.2-7.2 12.8-21.8 35.3-28.2 43.1-22.4 27.9-40.1 45.4-63.2 62.6-6.3 4.7-12.1 9-12.7 9.6-3.9 3.1-30.4 18.4-39.3 22.7-15.8 7.6-38.2 16.5-47 18.7-.8.2-4.6 1.3-8.5 2.5-12.3 3.6-33.6 8.1-45 9.5-2.7.4-6.1.8-7.5 1-2.6.4-8.7 1-20.4 2-8.9.8-42.3.8-50.1 0-3.3-.3-8.2-.8-11-1.1-26.2-2.6-55.1-9.4-81-18.9l-9-3.3 7-2c7.6-2.3 72.3-20.4 100.9-28.3 9.9-2.7 19.9-5.8 22.3-6.9 8.7-3.8 15.3-14.2 15.3-23.9 0-12.7-10.8-24.6-23.3-25.8-6.2-.6-5.3-.8-44.7 10.2-17.3 4.9-34.4 9.6-38 10.6-12.3 3.3-100.5 28.1-111.8 31.4C14 524 8.8 527 5 532.6c-5.4 8-6.2 18.2-2.2 26.5 3.1 6.3 6.9 9.6 20.7 17.8 29.9 17.9 68.2 33.8 101 42.2 15.4 4 13.9 3.6 29 6.4 20.3 3.7 24.8 4.3 48 6 6.1.5 36.7.5 45 .1 9.4-.5 25.8-1.8 27.9-2.2 1-.2 4.4-.6 7.5-1 4.6-.5 24.8-4 32.6-5.7 1.1-.2 3.8-.8 6-1.2 2.2-.5 4.5-.9 5-1 7.8-1.7 39.9-12.3 52-17.2 14.6-5.9 37.5-17.4 50.5-25.3 9.7-5.9 28.8-18.6 30-19.9.3-.4 2.3-2 4.5-3.6s5.1-3.9 6.4-5c55.6-46.1 93.2-97.5 121.2-165.5 6.4-15.7 15-44.1 19-62.5.7-3.3 1.3-6.2 1.4-6.5 1.3-6 2.1-10.7 2.9-16.3.4-2.7.9-5.7 1.1-6.7.2-1 .6-4.7 1-8.2.3-3.5.8-7.4 1-8.8.6-3.4 1.5-19.5 1.7-30.8.1-9.1.2-9.2 3.2-11.1 1.7-1.1 9.7-6.6 17.8-12.3 8.1-5.7 20-13.9 26.4-18.3 6.4-4.4 12.2-8.5 12.8-9 .6-.6 3.7-2.8 6.9-4.9 7.6-5.1 11.4-9.8 13.3-16.4 5.9-20.3-13.4-39.1-33.2-32.3zM45.8 248.6c-15.3 3.9-23.4 18.6-19 34 1.4 4.9 7.9 12.5 12.5 14.7 1.8.9 17.2 5.5 34.2 10.3 35.1 9.8 39.8 10.4 47.8 6.4 5.6-2.8 11.2-8.6 13.4-13.9 2.3-5.2 2.1-14.7-.4-20.1-4.3-9.7-9.3-13.1-25.3-17.5-5.2-1.4-11.7-3.2-14.5-4-2.7-.7-7.7-2.1-11-3-3.3-.9-9.1-2.5-13-3.6-13.9-3.9-19.6-4.7-24.7-3.3zM136.7 376.6c-.1.1-9.2.5-20.2.8-27 .9-30.1 1.6-37.4 8.1-10.6 9.6-11 27.5-.7 37.6 6.6 6.5 9.6 7.4 25.1 7.3 16.6 0 49.4-1.2 55-2 21.6-2.9 30.6-29.2 15.3-44.6-6.3-6.2-9.7-7.3-24.1-7.4-7 0-12.8 0-13 .2z"/></svg>